# xmcd CD database file generated by Grip 3.2.0
# 
# Track frame offsets:
#       150
#       22330
#       25617
#       58592
#       103902
#       113075
#       140062
#       145117
#       162817
#       171505
#       181262
#       204517
#       214977
# 
# Disc length: 3272 seconds
# 
# Revision: 4
# Processed by: cddbd v1.5.1PL0 Copyright (c) Steve Scherf et al.
# Submitted via: Grip 3.2.0
# 
DISCID=c10cc60d
DTITLE=Jerry Portnoy - Blues Harmonica Masterclass - Disc 1
DYEAR=1997
DGENRE=Blues
TTITLE0=Introduction
TTITLE1=Holding the Harmonica
TTITLE2=Chord Rhythm
TTITLE3=Tongue Blocking
TTITLE4=Changeover Scale
TTITLE5=Syncopating Chords
TTITLE6=Back Rhythm
TTITLE7=Octaves
TTITLE8=Draw Octaves
TTITLE9=Simple Songs
TTITLE10=Pursed Lips
TTITLE11=Lip Blocking
TTITLE12=12 Bar Structure
EXTD=
EXTT0=
EXTT1=
EXTT2=
EXTT3=
EXTT4=
EXTT5=
EXTT6=
EXTT7=
EXTT8=
EXTT9=
EXTT10=
EXTT11=
EXTT12=
PLAYORDER=
